<svg width="15" height="15" viewBox="0 0 15 15" xmlns="http://www.w3.org/2000/svg">
  <path fill="currentColor" d="M14.4747 7.67285H11.8647C11.1297 7.67285 10.4773 8.07784 10.1473 8.73783L9.51728 9.9828C9.36728 10.2828 9.06729 10.4703 8.7373 10.4703H6.27735C6.04486 10.4703 5.71487 10.4178 5.49737 9.9828L4.86739 8.74533C4.53739 8.09284 3.87741 7.68035 3.14993 7.68035H0.524988C0.232495 7.68035 0 7.91285 0 8.20534V10.6503C0 13.3727 1.63496 15.0002 4.3649 15.0002H10.6498C13.2222 15.0002 14.8047 13.5902 14.9996 11.0853V8.19784C14.9996 7.91285 14.7672 7.67285 14.4747 7.67285Z"/>
  <path fill="currentColor" d="M14.9996 4.3574V6.63734C14.8347 6.57735 14.6547 6.54735 14.4747 6.54735H11.8647C10.7022 6.54735 9.65977 7.19233 9.14229 8.22731L8.5798 9.33728H6.43485L5.87236 8.23481C5.35487 7.19233 4.3124 6.54735 3.14993 6.54735H0.524988C0.344992 6.54735 0.164996 6.57735 0 6.63734V4.3574C0 1.62746 1.62746 0 4.3574 0H10.6423C13.3722 0 14.9996 1.62746 14.9996 4.3574Z"/>
</svg>
