<svg width="26" height="26" viewBox="0 0 26 26" xmlns="http://www.w3.org/2000/svg">
  <path fill="currentColor" d="M0.399902 25.6022L1.4079 22.5992C1.7439 21.6332 2.0169 20.6462 2.3949 19.7012C2.4981 19.4997 2.55192 19.2765 2.55192 19.0502C2.55192 18.8238 2.4981 18.6006 2.3949 18.3992C1.20093 16.1949 0.713663 13.6768 0.999158 11.1862C1.28465 8.69562 2.3291 6.35308 3.9909 4.47615C5.19735 3.10089 6.70298 2.02046 8.39213 1.31786C10.0813 0.615256 11.909 0.309185 13.7349 0.423153C16.5024 0.514477 19.1492 1.57769 21.2109 3.42615C23.1605 5.12305 24.5209 7.39525 25.0959 9.91515C25.5761 11.9529 25.5182 14.0805 24.9279 16.0892C24.2062 18.6133 22.6706 20.8281 20.5599 22.3892C19.1625 23.4775 17.5416 24.2434 15.8135 24.6318C14.0853 25.0203 12.2927 25.0218 10.5639 24.6362C9.47022 24.4162 8.41556 24.034 7.4349 23.5022C7.35936 23.4666 7.2769 23.4482 7.1934 23.4482C7.10991 23.4482 7.02744 23.4666 6.9519 23.5022L1.3239 25.2662L0.399902 25.6022ZM3.5919 22.4312H3.7809L7.3089 21.3182C7.43147 21.2766 7.56434 21.2766 7.6869 21.3182C8.1909 21.5702 8.6739 21.8852 9.1989 22.0952C11.2912 23.0141 13.6394 23.1702 15.8349 22.5362C17.1262 22.1912 18.3357 21.5919 19.3923 20.7733C20.4488 19.9547 21.3313 18.9334 21.9879 17.7692C23.2909 15.501 23.6753 12.8199 23.062 10.277C22.4488 7.7342 20.8845 5.52299 18.6909 4.09815C16.7048 2.80963 14.3324 2.25168 11.9802 2.51985C9.62791 2.78803 7.44205 3.86564 5.7969 5.56815C4.45024 6.9433 3.53114 8.67938 3.1509 10.5662C2.85202 11.8597 2.81889 13.2005 3.05352 14.5072C3.28815 15.8139 3.78566 17.0594 4.5159 18.1682C4.63445 18.3646 4.69711 18.5897 4.69711 18.8192C4.69711 19.0486 4.63445 19.2737 4.5159 19.4702C4.2429 20.3942 3.9489 21.4022 3.5919 22.4312Z"/>
  <path fill="currentColor" d="M19.4263 16.2149C19.4135 16.662 19.2746 17.0963 19.0257 17.4678C18.7767 17.8394 18.4279 18.133 18.0193 18.3149C17.5952 18.5467 17.1258 18.6836 16.6435 18.7162C16.1613 18.7489 15.6778 18.6764 15.2263 18.5039C14.3616 18.1903 13.5135 17.8328 12.6853 17.4329C11.6153 16.8661 10.6608 16.1039 9.87128 15.1859C8.97548 14.2006 8.20651 13.1071 7.58228 11.9309C7.11407 11.1157 6.89505 10.1812 6.95228 9.2429C6.99547 8.75839 7.14142 8.28865 7.38041 7.86498C7.6194 7.44132 7.94595 7.07345 8.33828 6.7859C8.51922 6.66343 8.72932 6.59098 8.94728 6.5759C9.21285 6.55445 9.47972 6.55445 9.74528 6.5759C9.8424 6.58819 9.93383 6.6285 10.0084 6.6919C10.083 6.75529 10.1375 6.83904 10.1653 6.9329C10.3753 7.4159 10.5433 7.8989 10.7323 8.4029C10.9213 8.9069 10.9633 9.0749 11.1103 9.3899C11.2395 9.56346 11.3021 9.77766 11.2867 9.9935C11.2713 10.2093 11.1789 10.4125 11.0263 10.5659C10.8241 10.83 10.5993 11.0759 10.3543 11.3009C10.2647 11.3715 10.2044 11.4728 10.185 11.5853C10.1656 11.6977 10.1885 11.8133 10.2493 11.9099C10.8178 12.9425 11.5725 13.8609 12.4753 14.6189C13.1224 15.1043 13.8279 15.5064 14.5753 15.8159C14.6527 15.8867 14.7538 15.926 14.8588 15.926C14.9637 15.926 15.0649 15.8867 15.1423 15.8159L16.1923 14.6189C16.4233 14.3669 16.5283 14.3039 16.8223 14.4509L19.4053 15.7949C19.4402 15.8588 19.4603 15.9298 19.4639 16.0025C19.4675 16.0752 19.4547 16.1478 19.4263 16.2149Z"/>
</svg>
