<svg width="24" height="23" viewBox="0 0 24 23" fill="none" xmlns="http://www.w3.org/2000/svg">
<path d="M15.5 10.5002C15.4023 8.59623 14.4023 7.59623 12.5 7.50024L15.5 10.5002Z" fill="#505050"/>
<path d="M18.4981 10.5002C18.5357 8.84774 18.0214 7.46707 16.9554 6.35824C15.8846 5.24548 14.4022 4.63277 12.5 4.50024" fill="#505050"/>
<path d="M22.575 10.3168C22.7936 7.54289 21.836 5.2571 19.7021 3.45948C17.5682 1.66185 14.8091 0.603096 11.4248 0.283203" fill="#505050"/>
<path d="M13.1306 16.7478C13.1306 16.7478 13.873 16.8105 14.2726 16.3181L15.0519 15.3378C15.4278 14.8518 16.3349 14.5417 17.2232 15.0365C17.8888 15.4162 18.5351 15.8288 19.1595 16.273C19.749 16.7065 20.9561 17.7137 20.9599 17.7137C21.535 18.1992 21.6678 18.912 21.2763 19.6637C21.2763 19.6681 21.2731 19.6756 21.2731 19.6793C20.8419 20.4268 20.2944 21.1009 19.6513 21.6763C19.6438 21.68 19.6438 21.6838 19.6369 21.6875C19.0781 22.1544 18.5291 22.4198 17.9899 22.4837C17.9106 22.4976 17.8299 22.5026 17.7494 22.4987C17.5116 22.501 17.2751 22.4646 17.049 22.391L17.0315 22.3653C16.2008 22.131 14.8139 21.5447 12.5042 20.2707C11.1676 19.5421 9.89515 18.7016 8.70044 17.7582C8.10161 17.2856 7.53041 16.7791 6.98963 16.2411L6.93199 16.1835L6.87436 16.1258L6.81673 16.0682C6.79731 16.0494 6.77851 16.03 6.75909 16.0106C6.22104 15.4698 5.71446 14.8987 5.24185 14.2999C4.29855 13.1054 3.458 11.8333 2.72919 10.4971C1.45501 8.18698 0.868661 6.80141 0.634372 5.96956L0.608688 5.95203C0.535247 5.72594 0.499068 5.48942 0.501566 5.25172C0.49718 5.17126 0.502015 5.09056 0.515974 5.01119C0.583212 4.47291 0.849032 3.92357 1.31343 3.36316C1.31719 3.35627 1.32095 3.35627 1.32471 3.34875C1.89997 2.70565 2.57414 2.15841 3.32181 1.72766C3.32557 1.72766 3.33308 1.7239 3.33747 1.7239C4.0892 1.33241 4.80209 1.4652 5.28696 2.03709C5.29071 2.04085 6.29615 3.2479 6.72777 3.83734C7.17207 4.46231 7.58478 5.10913 7.96437 5.77538C8.45926 6.66298 8.14917 7.57187 7.66305 7.94645L6.68267 8.72568C6.18778 9.12531 6.25293 9.86759 6.25293 9.86759C6.25293 9.86759 7.70502 15.3629 13.1306 16.7478Z" fill="#505050"/>
</svg>
