<svg width="20" height="20" fill="none" xmlns="http://www.w3.org/2000/svg"><path d="M12.85 1.95v3.8h-1.5v-3.8c0-.27-.24-.4-.4-.4-.05 0-.1.01-.15.03L2.87 4.57c-.53.2-.87.7-.87 1.27v.67c-.91.68-1.5 1.77-1.5 3V5.84c0-1.19.73-2.25 1.84-2.67l7.94-3c.22-.08.45-.12.67-.12 1 0 1.9.81 1.9 1.9ZM19.5 12.5v1a.5.5 0 0 1-.49.5h-1.46c-.53 0-1.01-.39-1.05-.91-.03-.31.09-.6.29-.8a.95.95 0 0 1 .7-.29H19c.29.01.5.23.5.5Z" fill="#fff"/><path d="M17.48 10.95h1.02c.55 0 1-.45 1-1v-.44c0-2.07-1.69-3.76-3.76-3.76H4.26c-.85 0-1.63.28-2.26.76-.91.68-1.5 1.77-1.5 3v6.73C.5 18.31 2.19 20 4.26 20h11.48c2.07 0 3.76-1.69 3.76-3.76v-.19c0-.55-.45-1-1-1h-.87c-.96 0-1.88-.59-2.13-1.52-.21-.76.04-1.49.54-1.98.37-.38.88-.6 1.44-.6Zm-5.48-.2H5c-.41 0-.75-.34-.75-.75s.34-.75.75-.75h7c.41 0 .75.34.75.75s-.34.75-.75.75Z" fill="#fff"/></svg>