<svg width="30" height="31" fill="none" xmlns="http://www.w3.org/2000/svg"><path d="m13.596 19.455-2.78 2.779a1.51 1.51 0 0 1-2.118.015c-.165-.165-.33-.316-.496-.48a42.688 42.688 0 0 1-4.19-4.913c-1.233-1.713-2.224-3.426-2.945-5.123C.36 10.02 0 8.383 0 6.82 0 5.8.18 4.822.54 3.921c.361-.916.932-1.758 1.728-2.509C3.23.466 4.282 0 5.393 0c.42 0 .841.09 1.217.27.39.18.736.451 1.007.842l3.485 4.912c.27.376.466.721.6 1.052.136.315.211.63.211.916 0 .36-.105.721-.315 1.067a5.12 5.12 0 0 1-.842 1.066l-1.141 1.187a.804.804 0 0 0-.24.601c0 .12.014.225.044.346.045.12.09.21.12.3.27.496.737 1.142 1.398 1.923a51.35 51.35 0 0 0 2.178 2.374c.15.15.315.3.466.45.6.586.616 1.548.015 2.149ZM30 24.531c0 .42-.075.856-.225 1.277-.045.12-.09.24-.15.36a6.198 6.198 0 0 1-1.022 1.533c-.736.811-1.547 1.397-2.464 1.773-.015 0-.03.014-.045.014a7.588 7.588 0 0 1-2.884.556c-1.532 0-3.17-.36-4.898-1.096-1.727-.736-3.455-1.728-5.167-2.975a37.752 37.752 0 0 1-1.728-1.337l4.912-4.912c.421.315.797.555 1.112.72.075.03.165.076.27.12.12.046.24.061.376.061.256 0 .45-.09.616-.255l1.142-1.127c.375-.376.736-.661 1.081-.841a2 2 0 0 1 1.067-.316c.286 0 .586.06.917.196.33.135.675.33 1.051.585l4.973 3.53c.39.271.66.587.826.962.15.376.24.751.24 1.172Z" fill="#fff"/></svg>