<svg width="24" height="24" fill="none" xmlns="http://www.w3.org/2000/svg"><path d="M20.25 9a8.25 8.25 0 1 0-13.5 6.356V22.5a.74.74 0 0 0 .356.637.75.75 0 0 0 .732.038L12 21.085l4.163 2.09a.883.883 0 0 0 .337.075.75.75 0 0 0 .75-.75v-7.144a8.232 8.232 0 0 0 3-6.356Zm-15 0A6.75 6.75 0 1 1 12 15.75 6.76 6.76 0 0 1 5.25 9Zm10.5 12.29-3.412-1.715a.778.778 0 0 0-.675 0L8.25 21.291V16.35a8.26 8.26 0 0 0 7.5 0v4.94ZM12 14.25a5.25 5.25 0 1 0 0-10.499 5.25 5.25 0 0 0 0 10.499Zm0-9A3.75 3.75 0 1 1 8.25 9 3.76 3.76 0 0 1 12 5.25Z" fill="#F90"/></svg>