<svg width="30" height="30" fill="none" xmlns="http://www.w3.org/2000/svg"><path d="M13.878 9.117v4.29l-1.515-.525c-.765-.27-1.23-.525-1.23-1.83 0-1.065.795-1.935 1.77-1.935h.975Zm4.992 9.825c0 1.066-.795 1.936-1.77 1.936h-.975v-4.29l1.515.524c.765.27 1.23.526 1.23 1.83Z" fill="#73C1F2"/><path d="M21.285 0H8.715C3.255 0 0 3.255 0 8.715v12.57C0 26.745 3.255 30 8.715 30h12.57C26.745 30 30 26.745 30 21.285V8.715C30 3.255 26.745 0 21.285 0ZM18.39 15c1.17.405 2.73 1.26 2.73 3.945 0 2.31-1.8 4.185-4.02 4.185h-.975V24c0 .615-.51 1.125-1.125 1.125s-1.125-.51-1.125-1.125v-.87h-.54c-2.46 0-4.455-2.085-4.455-4.635 0-.615.495-1.125 1.125-1.125.615 0 1.125.51 1.125 1.125 0 1.32.99 2.385 2.205 2.385h.54v-5.085L11.61 15c-1.17-.405-2.73-1.26-2.73-3.945 0-2.31 1.8-4.185 4.02-4.185h.975V6c0-.615.51-1.125 1.125-1.125s1.125.51 1.125 1.125v.87h.54c2.46 0 4.455 2.085 4.455 4.635 0 .615-.495 1.125-1.125 1.125-.615 0-1.125-.51-1.125-1.125 0-1.32-.99-2.385-2.205-2.385h-.54v5.085L18.39 15Z" fill="#73C1F2"/></svg>