<svg xmlns="http://www.w3.org/2000/svg" xmlns:xlink="http://www.w3.org/1999/xlink"><symbol id="icon-close" viewBox="0 0 15 15">
  <path fill="currentColor" d="M14.684 13.1686C14.8852 13.3698 14.9982 13.6426 14.9982 13.9272C14.9982 14.2117 14.8852 14.4846 14.684 14.6858C14.4828 14.887 14.2099 15 13.9253 15C13.6408 15 13.3679 14.887 13.1667 14.6858L7.5 9.01766L1.83154 14.684C1.63034 14.8852 1.35744 14.9982 1.07289 14.9982C0.788345 14.9982 0.51545 14.8852 0.314243 14.684C0.113037 14.4828 2.99821e-09 14.2099 0 13.9254C-2.99821e-09 13.6409 0.113037 13.368 0.314243 13.1668L5.9827 7.50045L0.316028 1.83233C0.114822 1.63113 0.0017851 1.35825 0.0017851 1.07372C0.0017851 0.78919 0.114822 0.516312 0.316028 0.315117C0.517235 0.113922 0.790129 0.00089233 1.07468 0.000892327C1.35923 0.000892324 1.63212 0.113922 1.83333 0.315117L7.5 5.98324L13.1685 0.314224C13.3697 0.11303 13.6426 -4.74031e-09 13.9271 0C14.2117 4.74031e-09 14.4845 0.11303 14.6858 0.314224C14.887 0.515419 15 0.788297 15 1.07283C15 1.35736 14.887 1.63024 14.6858 1.83143L9.0173 7.50045L14.684 13.1686Z"/>
</symbol><symbol id="icon-open" viewBox="0 0 42 37">
  <path fill="currentColor" d="M3.96441 0H38.0356C39.087 0 40.0954 0.417678 40.8388 1.16115C41.5823 1.90462 42 2.91299 42 3.96441C42 5.01584 41.5823 6.02421 40.8388 6.76768C40.0954 7.51115 39.087 7.92883 38.0356 7.92883H3.96441C2.91299 7.92883 1.90462 7.51115 1.16115 6.76768C0.417678 6.02421 1.18149e-07 5.01584 1.18149e-07 3.96441C1.18149e-07 2.91299 0.417678 1.90462 1.16115 1.16115C1.90462 0.417678 2.91299 0 3.96441 0ZM3.96441 14.2628H38.0356C38.5562 14.2628 39.0717 14.3653 39.5527 14.5645C40.0337 14.7638 40.4707 15.0558 40.8388 15.4239C41.207 15.7921 41.499 16.2291 41.6982 16.7101C41.8975 17.1911 42 17.7066 42 18.2272C42 18.7478 41.8975 19.2633 41.6982 19.7443C41.499 20.2253 41.207 20.6623 40.8388 21.0305C40.4707 21.3986 40.0337 21.6906 39.5527 21.8898C39.0717 22.0891 38.5562 22.1916 38.0356 22.1916H3.96441C3.4438 22.1916 2.92828 22.0891 2.4473 21.8898C1.96631 21.6906 1.52928 21.3986 1.16115 21.0305C0.79302 20.6623 0.501004 20.2253 0.301773 19.7443C0.102543 19.2633 3.4605e-08 18.7478 3.4605e-08 18.2272C3.4605e-08 17.7066 0.102543 17.1911 0.301773 16.7101C0.501004 16.2291 0.79302 15.7921 1.16115 15.4239C1.52928 15.0558 1.96631 14.7638 2.4473 14.5645C2.92828 14.3653 3.4438 14.2628 3.96441 14.2628ZM3.96441 28.5271H38.0356C38.5562 28.5271 39.0717 28.6296 39.5527 28.8288C40.0337 29.0281 40.4707 29.3201 40.8388 29.6882C41.207 30.0563 41.499 30.4934 41.6982 30.9744C41.8975 31.4554 42 31.9709 42 32.4915C42 33.0121 41.8975 33.5276 41.6982 34.0086C41.499 34.4896 41.207 34.9266 40.8388 35.2947C40.4707 35.6629 40.0337 35.9549 39.5527 36.1541C39.0717 36.3534 38.5562 36.4559 38.0356 36.4559H3.96441C3.4438 36.4559 2.92828 36.3534 2.4473 36.1541C1.96631 35.9549 1.52928 35.6629 1.16115 35.2947C0.79302 34.9266 0.501003 34.4896 0.301773 34.0086C0.102543 33.5276 0 33.0121 0 32.4915C0 31.9709 0.102543 31.4554 0.301773 30.9744C0.501003 30.4934 0.79302 30.0563 1.16115 29.6882C1.52928 29.3201 1.96631 29.0281 2.4473 28.8288C2.92828 28.6296 3.4438 28.5271 3.96441 28.5271Z"/>
</symbol><symbol id="mail" viewBox="0 0 15 15">
  <path fill="currentColor" d="M14.4747 7.67285H11.8647C11.1297 7.67285 10.4773 8.07784 10.1473 8.73783L9.51728 9.9828C9.36728 10.2828 9.06729 10.4703 8.7373 10.4703H6.27735C6.04486 10.4703 5.71487 10.4178 5.49737 9.9828L4.86739 8.74533C4.53739 8.09284 3.87741 7.68035 3.14993 7.68035H0.524988C0.232495 7.68035 0 7.91285 0 8.20534V10.6503C0 13.3727 1.63496 15.0002 4.3649 15.0002H10.6498C13.2222 15.0002 14.8047 13.5902 14.9996 11.0853V8.19784C14.9996 7.91285 14.7672 7.67285 14.4747 7.67285Z"/>
  <path fill="currentColor" d="M14.9996 4.3574V6.63734C14.8347 6.57735 14.6547 6.54735 14.4747 6.54735H11.8647C10.7022 6.54735 9.65977 7.19233 9.14229 8.22731L8.5798 9.33728H6.43485L5.87236 8.23481C5.35487 7.19233 4.3124 6.54735 3.14993 6.54735H0.524988C0.344992 6.54735 0.164996 6.57735 0 6.63734V4.3574C0 1.62746 1.62746 0 4.3574 0H10.6423C13.3722 0 14.9996 1.62746 14.9996 4.3574Z"/>
</symbol><symbol id="phone" viewBox="0 0 15 15">
  <path fill="currentColor" d="M6.78782 9.71296L5.40025 11.1005C5.10774 11.393 4.64272 11.393 4.3427 11.108C4.2602 11.0255 4.1777 10.9505 4.09519 10.868C3.32266 10.088 2.62512 9.27043 2.00259 8.41539C1.38757 7.56035 0.892542 6.70531 0.532525 5.85777C0.180008 5.00273 0 4.1852 0 3.40516C0 2.89514 0.0900042 2.40761 0.270013 1.95759C0.450021 1.50007 0.735035 1.08005 1.13255 0.705033C1.61258 0.232511 2.1376 0 2.69263 0C2.90264 0 3.11265 0.0450022 3.30016 0.135006C3.49516 0.225011 3.66767 0.360017 3.80268 0.555026L5.54276 3.00764C5.67777 3.19515 5.77527 3.36766 5.84277 3.53267C5.91028 3.69017 5.94778 3.84768 5.94778 3.99019C5.94778 4.1702 5.89528 4.3502 5.79027 4.52271C5.69277 4.69522 5.55026 4.87523 5.37025 5.05524L4.80023 5.64776C4.71772 5.73027 4.68022 5.82777 4.68022 5.94778C4.68022 6.00778 4.68772 6.06028 4.70272 6.12029C4.72522 6.18029 4.74772 6.22529 4.76272 6.27029C4.89773 6.51781 5.13024 6.84032 5.46026 7.23034C5.79777 7.62036 6.15779 8.01788 6.54781 8.41539C6.62281 8.4904 6.70532 8.5654 6.78032 8.64041C7.08033 8.93292 7.08783 9.41294 6.78782 9.71296Z"/>
  <path fill="currentColor" d="M14.9781 12.2474C14.9781 12.4574 14.9406 12.675 14.8656 12.885C14.8431 12.945 14.8206 13.005 14.7906 13.065C14.6631 13.335 14.4981 13.59 14.2806 13.83C13.9131 14.235 13.5081 14.5275 13.0505 14.7151C13.043 14.7151 13.0355 14.7226 13.028 14.7226C12.5855 14.9026 12.1055 15.0001 11.588 15.0001C10.8229 15.0001 10.0054 14.8201 9.14286 14.4525C8.28032 14.085 7.41778 13.59 6.56274 12.9675C6.27022 12.75 5.97771 12.5324 5.7002 12.2999L8.15281 9.84732C8.36282 10.0048 8.55033 10.1248 8.70784 10.2073C8.74534 10.2223 8.79034 10.2448 8.84284 10.2673C8.90285 10.2898 8.96285 10.2973 9.03035 10.2973C9.15786 10.2973 9.25536 10.2523 9.33787 10.1698L9.90789 9.60731C10.0954 9.4198 10.2754 9.2773 10.4479 9.18729C10.6204 9.08229 10.7929 9.02979 10.9804 9.02979C11.1229 9.02979 11.273 9.05979 11.438 9.12729C11.603 9.19479 11.7755 9.2923 11.963 9.4198L14.4456 11.1824C14.6406 11.3174 14.7756 11.4749 14.8581 11.6624C14.9331 11.8499 14.9781 12.0374 14.9781 12.2474Z"/>
</symbol><symbol id="place" viewBox="0 0 13 15">
  <path fill="currentColor" d="M12.8049 4.90244C12.0366 1.52195 9.08779 0 6.49754 0C6.49754 0 6.49754 0 6.49023 0C3.9073 0 0.951203 1.51463 0.182911 4.89512C-0.673187 8.67073 1.63901 11.8683 3.73169 13.8805C4.5073 14.6268 5.50242 15 6.49754 15C7.49267 15 8.48779 14.6268 9.25608 13.8805C11.3488 11.8683 13.661 8.67805 12.8049 4.90244ZM6.49754 8.56829C5.22437 8.56829 4.19267 7.53659 4.19267 6.26341C4.19267 4.99024 5.22437 3.95854 6.49754 3.95854C7.77072 3.95854 8.80242 4.99024 8.80242 6.26341C8.80242 7.53659 7.77072 8.56829 6.49754 8.56829Z"/>
</symbol><symbol id="time" viewBox="0 0 15 15">
  <path fill="currentColor" d="M7.5 0C3.3675 0 0 3.3675 0 7.5C0 11.6325 3.3675 15 7.5 15C11.6325 15 15 11.6325 15 7.5C15 3.3675 11.6325 0 7.5 0ZM10.7625 10.1775C10.6575 10.3575 10.47 10.455 10.275 10.455C10.1775 10.455 10.08 10.4325 9.99 10.3725L7.665 8.985C7.0875 8.64 6.66 7.8825 6.66 7.215V4.14C6.66 3.8325 6.915 3.5775 7.2225 3.5775C7.53 3.5775 7.785 3.8325 7.785 4.14V7.215C7.785 7.485 8.01 7.8825 8.2425 8.0175L10.5675 9.405C10.8375 9.5625 10.9275 9.9075 10.7625 10.1775Z"/>
</symbol></svg>