<svg width="30" height="31" viewBox="0 0 30 31" fill="none" xmlns="http://www.w3.org/2000/svg">
<path d="M13.5957 19.4546L10.8164 22.2338C10.2305 22.8197 9.29913 22.8197 8.69822 22.2488C8.53297 22.0836 8.36772 21.9333 8.20246 21.7681C6.65511 20.2057 5.25799 18.5682 4.0111 16.8556C2.77922 15.143 1.78772 13.4304 1.06662 11.7328C0.360548 10.0202 0 8.38274 0 6.82036C0 5.79881 0.180274 4.82233 0.540822 3.92096C0.90137 3.00457 1.47224 2.16329 2.26845 1.41215C3.22991 0.465708 4.28151 0 5.3932 0C5.81383 0 6.23447 0.0901371 6.61004 0.270411C7.00064 0.450685 7.34616 0.721096 7.61657 1.11169L11.1019 6.02415C11.3723 6.39973 11.5676 6.74525 11.7028 7.07575C11.838 7.39123 11.9131 7.70671 11.9131 7.99215C11.9131 8.35269 11.8079 8.71324 11.5976 9.05877C11.4023 9.40429 11.1169 9.76484 10.7563 10.1254L9.61461 11.3122C9.44936 11.4774 9.37424 11.6727 9.37424 11.9131C9.37424 12.0333 9.38927 12.1384 9.41931 12.2586C9.46438 12.3788 9.50945 12.4689 9.5395 12.5591C9.80991 13.0548 10.2756 13.7008 10.9366 14.482C11.6126 15.2632 12.3337 16.0594 13.1149 16.8556C13.2652 17.0058 13.4304 17.1561 13.5806 17.3063C14.1816 17.8922 14.1966 18.8536 13.5957 19.4546Z" fill="white"/>
<path d="M30.0002 24.531C30.0002 24.9516 29.9251 25.3873 29.7749 25.8079C29.7298 25.9281 29.6848 26.0483 29.6247 26.1685C29.3693 26.7093 29.0388 27.2201 28.6031 27.7008C27.867 28.512 27.0558 29.0979 26.1394 29.4735C26.1243 29.4735 26.1093 29.4885 26.0943 29.4885C25.208 29.8491 24.2465 30.0444 23.2099 30.0444C21.6776 30.0444 20.0401 29.6838 18.3125 28.9477C16.5848 28.2116 14.8572 27.2201 13.1446 25.9732C12.5587 25.5375 11.9728 25.1018 11.417 24.6361L16.3295 19.7237C16.7501 20.0391 17.1257 20.2795 17.4411 20.4448C17.5163 20.4748 17.6064 20.5199 17.7116 20.5649C17.8317 20.61 17.9519 20.625 18.0871 20.625C18.3425 20.625 18.5378 20.5349 18.7031 20.3697L19.8448 19.2429C20.2204 18.8674 20.5809 18.5819 20.9264 18.4017C21.272 18.1913 21.6175 18.0862 21.9931 18.0862C22.2785 18.0862 22.579 18.1463 22.9095 18.2815C23.24 18.4167 23.5855 18.612 23.9611 18.8674L28.9336 22.3977C29.3242 22.6681 29.5946 22.9836 29.7599 23.3592C29.9101 23.7348 30.0002 24.1103 30.0002 24.531Z" fill="white"/>
</svg>
