<svg width="24" height="24" viewBox="0 0 24 24" fill="none" xmlns="http://www.w3.org/2000/svg">
<path d="M20.25 9C20.2513 7.60957 19.9012 6.24137 19.2321 5.02249C18.563 3.80362 17.5968 2.77361 16.4231 2.02817C15.2493 1.28272 13.9063 0.846008 12.5186 0.758607C11.1309 0.671206 9.74365 0.93595 8.48568 1.52824C7.22771 2.12054 6.13985 3.02116 5.32315 4.14646C4.50644 5.27176 3.9874 6.58522 3.81423 7.96482C3.64107 9.34443 3.81939 10.7454 4.33265 12.0377C4.8459 13.3299 5.67744 14.4714 6.75 15.3563V22.5C6.74924 22.628 6.78165 22.754 6.84409 22.8657C6.90652 22.9774 6.99685 23.0711 7.10625 23.1375C7.21477 23.2057 7.33897 23.245 7.46699 23.2516C7.595 23.2581 7.72257 23.2318 7.8375 23.175L12 21.0844L16.1625 23.175C16.2689 23.222 16.3837 23.2475 16.5 23.25C16.6989 23.25 16.8897 23.171 17.0303 23.0303C17.171 22.8897 17.25 22.6989 17.25 22.5V15.3563C18.1883 14.5839 18.9439 13.6134 19.4626 12.5144C19.9812 11.4154 20.2502 10.2152 20.25 9ZM5.25 9C5.25 7.66498 5.64588 6.35993 6.38758 5.2499C7.12928 4.13987 8.18348 3.27471 9.41689 2.76381C10.6503 2.25292 12.0075 2.11925 13.3169 2.3797C14.6262 2.64015 15.829 3.28303 16.773 4.22703C17.717 5.17103 18.3599 6.37377 18.6203 7.68314C18.8808 8.99251 18.7471 10.3497 18.2362 11.5831C17.7253 12.8165 16.8601 13.8707 15.7501 14.6124C14.6401 15.3541 13.335 15.75 12 15.75C10.2105 15.7475 8.4951 15.0356 7.22977 13.7702C5.96443 12.5049 5.25248 10.7895 5.25 9ZM15.75 21.2906L12.3375 19.575C12.2322 19.5243 12.1169 19.498 12 19.498C11.8831 19.498 11.7678 19.5243 11.6625 19.575L8.25 21.2906V16.35C9.41143 16.9418 10.6965 17.2504 12 17.2504C13.3035 17.2504 14.5886 16.9418 15.75 16.35V21.2906ZM12 14.25C13.0384 14.25 14.0534 13.9421 14.9167 13.3652C15.7801 12.7883 16.453 11.9684 16.8504 11.0091C17.2477 10.0498 17.3517 8.99418 17.1491 7.97578C16.9466 6.95738 16.4465 6.02192 15.7123 5.28769C14.9781 4.55346 14.0426 4.05345 13.0242 3.85088C12.0058 3.64831 10.9502 3.75227 9.99091 4.14963C9.0316 4.54699 8.21166 5.2199 7.63478 6.08326C7.05791 6.94662 6.75 7.96165 6.75 9C6.75 10.3924 7.30312 11.7277 8.28769 12.7123C9.27225 13.6969 10.6076 14.25 12 14.25ZM12 5.25C12.7417 5.25 13.4667 5.46993 14.0834 5.88199C14.7001 6.29404 15.1807 6.87971 15.4645 7.56494C15.7484 8.25016 15.8226 9.00416 15.6779 9.73159C15.5332 10.459 15.1761 11.1272 14.6516 11.6517C14.1272 12.1761 13.459 12.5333 12.7316 12.6779C12.0042 12.8226 11.2502 12.7484 10.5649 12.4646C9.87971 12.1807 9.29404 11.7001 8.88199 11.0834C8.46993 10.4667 8.25 9.74168 8.25 9C8.25247 8.0062 8.64836 7.05381 9.35108 6.35108C10.0538 5.64836 11.0062 5.25248 12 5.25Z" fill="#FF9900"/>
</svg>
