<svg width="24" height="24" viewBox="0 0 24 24" fill="none" xmlns="http://www.w3.org/2000/svg">
<path d="M2 20V19C2 17.1435 2.7375 15.363 4.05025 14.0503C5.36301 12.7375 7.14348 12 9 12" stroke="#1AAE55" stroke-width="1.5" stroke-linecap="round" stroke-linejoin="round"/>
<path d="M15.8044 12.3134C15.9561 12.147 16.1408 12.0141 16.3467 11.9231C16.5526 11.8321 16.7753 11.7852 17.0004 11.7852C17.2256 11.7852 17.4482 11.8321 17.6542 11.9231C17.8601 12.0141 18.0448 12.147 18.1964 12.3134C18.5214 12.6704 18.9864 12.8634 19.4684 12.8404C19.6934 12.8299 19.9181 12.8664 20.1282 12.9477C20.3383 13.029 20.529 13.1533 20.6883 13.3126C20.8476 13.4718 20.9718 13.6626 21.0531 13.8727C21.1344 14.0827 21.171 14.3074 21.1604 14.5324C21.1374 15.0134 21.3304 15.4794 21.6864 15.8044C22.3914 16.4464 22.3914 17.5544 21.6864 18.1964C21.3304 18.5214 21.1374 18.9864 21.1604 19.4684C21.171 19.6934 21.1344 19.9181 21.0531 20.1282C20.9718 20.3383 20.8476 20.529 20.6883 20.6883C20.529 20.8476 20.3383 20.9718 20.1282 21.0531C19.9181 21.1344 19.6934 21.171 19.4684 21.1604C19.2308 21.1492 18.9936 21.1905 18.7737 21.2814C18.5538 21.3723 18.3567 21.5106 18.1964 21.6864C18.0448 21.8528 17.8601 21.9858 17.6542 22.0768C17.4482 22.1677 17.2256 22.2147 17.0004 22.2147C16.7753 22.2147 16.5526 22.1677 16.3467 22.0768C16.1408 21.9858 15.9561 21.8528 15.8044 21.6864C15.6441 21.5106 15.447 21.3723 15.2272 21.2814C15.0073 21.1905 14.7701 21.1492 14.5324 21.1604C14.3074 21.171 14.0827 21.1344 13.8727 21.0531C13.6626 20.9718 13.4718 20.8476 13.3126 20.6883C13.1533 20.529 13.029 20.3383 12.9477 20.1282C12.8664 19.9181 12.8299 19.6934 12.8404 19.4684C12.8515 19.2307 12.8101 18.9934 12.719 18.7736C12.6279 18.5537 12.4894 18.3566 12.3134 18.1964C12.147 18.0448 12.0141 17.8601 11.9231 17.6542C11.8321 17.4482 11.7852 17.2256 11.7852 17.0004C11.7852 16.7753 11.8321 16.5526 11.9231 16.3467C12.0141 16.1408 12.147 15.9561 12.3134 15.8044C12.6704 15.4794 12.8634 15.0144 12.8404 14.5324C12.8299 14.3074 12.8664 14.0827 12.9477 13.8727C13.029 13.6626 13.1533 13.4718 13.3126 13.3126C13.4718 13.1533 13.6626 13.029 13.8727 12.9477C14.0827 12.8664 14.3074 12.8299 14.5324 12.8404C15.0134 12.8634 15.4794 12.6704 15.8044 12.3134Z" stroke="#1AAE55" stroke-width="1.5"/>
<path d="M15.364 17L16.454 18.09L18.636 15.91M9 12C10.0609 12 11.0783 11.5786 11.8284 10.8284C12.5786 10.0783 13 9.06087 13 8C13 6.93913 12.5786 5.92172 11.8284 5.17157C11.0783 4.42143 10.0609 4 9 4C7.93913 4 6.92172 4.42143 6.17157 5.17157C5.42143 5.92172 5 6.93913 5 8C5 9.06087 5.42143 10.0783 6.17157 10.8284C6.92172 11.5786 7.93913 12 9 12Z" stroke="#1AAE55" stroke-width="1.5" stroke-linecap="round" stroke-linejoin="round"/>
</svg>
